<?xml version="1.0" encoding="utf-8"?>
<!-- Generator: Adobe Illustrator 16.0.0, SVG Export Plug-In . SVG Version: 6.00 Build 0)  -->
<!DOCTYPE svg PUBLIC "-//W3C//DTD SVG 1.1//EN" "http://www.w3.org/Graphics/SVG/1.1/DTD/svg11.dtd">
<svg version="1.1" id="Layer_1" xmlns="http://www.w3.org/2000/svg" xmlns:xlink="http://www.w3.org/1999/xlink" x="0px" y="0px"
	 width="100px" height="50px" viewBox="0 0 100 50" enable-background="new 0 0 100 50" xml:space="preserve">
<g>
	<g>
		<path fill="#BD9870" d="M22.166,25.456c-0.065-0.229-0.61-0.635-0.864-1.153c-0.213-0.435-0.667-1.007-0.945-1.222
			c-0.001-0.017-0.003-0.034-0.007-0.053c-0.017-0.071-0.04-0.254-0.071-0.524c0.02-0.551,0.008-1.621-0.127-2.728
			c-0.117-0.961-0.305-2.231-0.463-3.061c-0.145-1.315-0.295-2.521-0.431-3.245c0.048-0.421,0.082-0.924,0.06-1.41
			c-0.032-0.708-0.263-1.398-0.489-1.697c-0.452-0.598-0.986-0.877-1.458-0.907c-0.229-0.155-0.469-0.178-0.707-0.143
			c-0.459-0.01-1.503-0.053-1.838-0.265c-0.455-0.289-0.456-1.092-0.512-0.913c0.029-0.235-0.116-0.589,0.006-0.732
			c0.122-0.144,0.202-0.349,0.221-0.428c0.073-0.277,0.093-0.817,0.216-0.804s0.494-0.761,0.519-1.114
			c0.025-0.354-0.251-0.333-0.295-0.241c-0.044,0.093-0.065-0.26-0.114-1.334c-0.044-0.971-1.007-1.548-2.039-1.56l0,0
			c-0.001,0-0.002,0-0.002,0c-0.005,0-0.009,0-0.014,0c-0.005,0-0.01,0-0.015,0c0,0-0.001,0-0.002,0l0,0
			c-1.031,0.012-1.995,0.589-2.039,1.56c-0.048,1.075-0.07,1.427-0.114,1.334c-0.045-0.092-0.321-0.112-0.296,0.241
			c0.025,0.354,0.396,1.127,0.52,1.114s0.143,0.526,0.215,0.804c0.021,0.079,0.1,0.284,0.222,0.428
			c0.122,0.143-0.023,0.497,0.006,0.732c-0.056-0.179-0.057,0.624-0.512,0.913c-0.335,0.212-1.379,0.255-1.839,0.265
			C8.721,9.28,8.481,9.302,8.252,9.458C7.78,9.487,7.245,9.767,6.793,10.364c-0.226,0.299-0.457,0.989-0.488,1.697
			c-0.022,0.486,0.011,0.989,0.06,1.41c-0.136,0.724-0.286,1.93-0.431,3.246c-0.158,0.828-0.346,2.098-0.463,3.06
			c-0.135,1.107-0.146,2.176-0.127,2.727c-0.03,0.27-0.054,0.453-0.069,0.525c-0.005,0.018-0.007,0.035-0.009,0.052
			c-0.277,0.215-0.731,0.787-0.945,1.222c-0.254,0.519-0.798,0.924-0.864,1.153c-0.065,0.23,0.424,0.36,0.534,0.194
			c0.11-0.167,0.294-0.134,0.35,0.236c0.055,0.369-0.144,2.164,0.023,2.259c0.167,0.096,0.325-0.179,0.323-0.025
			c-0.002,0.154,0.087,0.308,0.287,0.313c0.2,0.002,0.191-0.413,0.25-0.258c0.059,0.155,0.181,0.218,0.321,0.128
			c0.139-0.089,0.197-0.75,0.227-0.703c0.03,0.047,0.012,0.185,0.182,0.11c0.17-0.074,0.644-1.74,0.743-2.153
			c0.09-0.376,0.017-1.854-0.046-2.472c0.208-0.753,1.139-2.856,1.364-3.514c0.237-0.691,0.52-3.681,0.501-4.336
			c-0.001-0.038-0.013-0.094-0.033-0.164c0.021-0.201,0.033-0.435,0.038-0.686c0.049,0.574,0.131,1.179,0.17,1.426
			C8.75,16.197,8.887,16.762,8.965,17c0.068,0.354,0.17,0.75,0.175,1.004c0.001,0.036,0.002,0.073,0.005,0.112
			c-0.003,0.114,0.016,0.304,0.031,0.511c0.012,0.301,0.005,0.663-0.08,1.112c-0.004,0.023-0.007,0.045-0.012,0.068
			c-0.013,0.052-0.023,0.121-0.03,0.203c-0.08,0.627-0.036,1.226,0.028,1.575c-0.011,0.017-0.017,0.045-0.018,0.088
			c0,0.056,0.014,0.145,0.041,0.256c-0.203,0.309-0.47,1.97-0.709,3.021c-0.164,0.722-0.247,1.641-0.271,2.14
			c-0.056,0.278-0.086,0.535-0.083,0.743c0.015,1.198,0.653,5.078,0.944,6.065c0.137,0.468,0.234,0.863,0.31,1.08
			c-0.045,0.085-0.096,0.234-0.15,0.43c-0.035,0.124-0.063,0.341-0.088,0.617c-0.031,0.025-0.068,0.101-0.11,0.239
			c-0.291,0.958-0.505,2.663-0.259,4.512c0.15,1.124,0.364,2.452,0.527,3.459C9.212,44.718,9.249,45.6,9.154,46.04
			c-0.1,0.459-0.413,0.821-0.877,1.045c-0.465,0.223-0.701,0.572-0.583,0.835c0.118,0.262,2.255,0.146,2.856,0.032
			c0.601-0.114,0.546-0.482,0.523-0.914c-0.024-0.43-0.236-0.634-0.183-1.078c0.049-0.414,0.017-0.993-0.087-1.439
			c-0.01-0.259-0.022-0.505-0.032-0.674c0.06-0.226,0.25-1.69,0.358-2.52c0.021-0.12,0.04-0.251,0.049-0.377
			c0.002-0.009,0.003-0.02,0.004-0.027c0.003-0.025,0.003-0.047,0.003-0.071c0.003-0.06,0.004-0.118,0.002-0.175
			c0.007,0.006,0.012,0.013,0.02,0.019c0.345-0.796,0.219-2.596,0.122-3.488c0.135-0.657,0.254-1.47,0.367-2.337
			c0.126-0.612,0.245-1.263,0.28-1.718c0.021-0.255,0.027-0.516,0.026-0.785c0.043-0.191,0.1-0.467,0.175-0.851
			c0.149-0.755,0.265-1.673,0.342-2.526l0,0c0.045-0.181,0.055-0.44,0.059-0.764c0.042-0.646,0.057-1.197,0.04-1.528
			c0.002-0.037,0.004-0.075,0.007-0.113c0.007-0.098,0.102-0.143,0.185-0.198c0.083,0.055,0.178,0.1,0.185,0.198
			c0.002,0.038,0.005,0.076,0.007,0.113c-0.018,0.332-0.003,0.883,0.04,1.528c0.003,0.324,0.014,0.583,0.06,0.764l0,0
			c0.076,0.853,0.191,1.771,0.341,2.526c0.075,0.384,0.132,0.659,0.174,0.851c-0.001,0.27,0.006,0.53,0.026,0.785
			c0.035,0.453,0.154,1.105,0.28,1.718c0.113,0.867,0.232,1.68,0.368,2.337c-0.098,0.893-0.224,2.692,0.122,3.488
			c0.006-0.006,0.013-0.013,0.019-0.019c-0.001,0.057,0,0.115,0.003,0.175c-0.001,0.024,0,0.046,0.002,0.071
			c0.001,0.008,0.003,0.019,0.004,0.027c0.01,0.126,0.028,0.257,0.049,0.377c0.108,0.829,0.298,2.294,0.359,2.52
			c-0.009,0.169-0.022,0.415-0.032,0.674c-0.105,0.446-0.137,1.025-0.087,1.439c0.054,0.444-0.159,0.648-0.182,1.078
			c-0.023,0.432-0.079,0.8,0.522,0.914c0.601,0.113,2.737,0.229,2.856-0.032c0.119-0.263-0.118-0.612-0.582-0.835
			c-0.464-0.224-0.778-0.586-0.877-1.045c-0.095-0.439-0.058-1.321-0.061-1.804c0.163-1.007,0.377-2.335,0.527-3.459
			c0.246-1.849,0.031-3.554-0.259-4.512c-0.042-0.139-0.08-0.214-0.111-0.239c-0.024-0.276-0.054-0.493-0.087-0.617
			c-0.056-0.195-0.106-0.345-0.151-0.43c0.075-0.217,0.173-0.612,0.31-1.08c0.292-0.987,0.929-4.868,0.945-6.065
			c0.002-0.208-0.029-0.465-0.084-0.743c-0.023-0.499-0.107-1.417-0.271-2.14c-0.239-1.051-0.507-2.713-0.709-3.021
			c0.026-0.111,0.042-0.2,0.042-0.256c-0.001-0.043-0.007-0.071-0.018-0.088c0.064-0.35,0.107-0.948,0.027-1.575
			c-0.007-0.082-0.016-0.151-0.03-0.203c-0.003-0.023-0.007-0.045-0.012-0.068c-0.083-0.449-0.09-0.811-0.079-1.112
			c0.015-0.208,0.035-0.397,0.031-0.511c0.001-0.039,0.003-0.076,0.004-0.112c0.005-0.253,0.106-0.65,0.176-1.004
			c0.077-0.238,0.213-0.803,0.274-1.19c0.038-0.248,0.12-0.852,0.17-1.426c0.004,0.251,0.017,0.485,0.038,0.686
			c-0.021,0.07-0.032,0.126-0.033,0.164c-0.018,0.655,0.265,3.645,0.501,4.336c0.224,0.658,1.155,2.761,1.364,3.514
			c-0.063,0.618-0.136,2.096-0.046,2.472c0.099,0.413,0.572,2.08,0.743,2.153c0.169,0.075,0.151-0.063,0.182-0.11
			c0.03-0.046,0.087,0.614,0.226,0.703c0.14,0.089,0.262,0.026,0.322-0.128c0.059-0.155,0.05,0.26,0.249,0.258
			c0.2-0.004,0.29-0.159,0.287-0.313s0.155,0.121,0.323,0.025c0.167-0.095-0.031-1.89,0.025-2.259
			c0.055-0.37,0.239-0.403,0.349-0.236C21.742,25.816,22.231,25.685,22.166,25.456z M8.495,13.296
			c-0.006-0.094-0.012-0.189-0.019-0.282c0.015,0.052,0.03,0.104,0.046,0.159C8.511,13.204,8.501,13.246,8.495,13.296z
			 M9.449,35.072c0.005-0.017,0.01-0.031,0.014-0.051c0.002,0.062,0.004,0.125,0.006,0.186C9.462,35.154,9.457,35.108,9.449,35.072z
			 M9.671,37.914c-0.022-0.29-0.046-0.583-0.067-0.867c0.058,0.432,0.131,0.772,0.214,1.036C9.761,38.017,9.711,37.954,9.671,37.914
			z M15.952,37.914c-0.04,0.04-0.09,0.104-0.147,0.169c0.084-0.264,0.156-0.604,0.214-1.036
			C15.997,37.331,15.974,37.624,15.952,37.914z M16.154,35.207c0.002-0.061,0.004-0.124,0.006-0.186
			c0.004,0.02,0.008,0.034,0.013,0.051C16.167,35.108,16.16,35.154,16.154,35.207z M17.127,13.296
			c-0.007-0.05-0.016-0.092-0.028-0.124c0.017-0.053,0.032-0.106,0.047-0.158C17.139,13.107,17.133,13.202,17.127,13.296z"/>
		<path fill="#E8ECF3" d="M16.375,14.303c-0.141-1.507-2.66-5.146-3.548-5.55V8.74c-0.005,0.001-0.011,0.004-0.016,0.006
			C12.806,8.745,12.8,8.743,12.795,8.74v0.013c-0.888,0.404-3.406,4.042-3.547,5.55c-0.15,1.595,0.569,10.209,0.274,16.843
			c-0.293,6.629,0.358,8.115,1.227,7.576s1.178-7.345,1.771-9.732c0.104-0.425,0.022-1.273,0.105-2.405
			c0.007-0.099,0.102-0.144,0.186-0.198c0.083,0.054,0.178,0.099,0.185,0.198c0.083,1.132,0,1.98,0.106,2.405
			c0.592,2.385,0.901,9.193,1.771,9.732c0.869,0.539,1.52-0.947,1.227-7.576C15.807,24.512,16.524,15.898,16.375,14.303z"/>
		<path fill="#FFF1AE" d="M13.587,10.437c0.25-0.116,1.636-0.744,2.136-0.854c0.5-0.111,1.108-0.5,1.657-0.12
			c0.55,0.38-3.347,1.325-3.561,1.359C13.604,10.857,13.221,10.607,13.587,10.437z"/>
		<path fill="#FFF1AE" d="M14.672,37.742c-0.078,0.195,0.214,5.507,0.182,6.039c-0.032,0.533-0.107,2.154,0.034,2.027
			c0.141-0.124,0.682-2.141,0.822-3.556c0.11-1.107,0.317-3.907,0.335-4.286c0.018-0.381-0.367,0.482-0.687,0.4
			C14.972,38.267,14.751,37.547,14.672,37.742z"/>
		<path fill="#981C1F" d="M15.152,23.355c-0.273,0.26-1.259,1.885-1.521,2.196c-0.261,0.311-0.332,5.946,0.022,6.329
			c0.355,0.383,0.338-3.119,0.897-3.968C15.111,27.064,15.394,23.126,15.152,23.355z"/>
		<path fill="#981C1F" d="M14.883,34.379c0.037-0.228-0.743-1.606-0.968-1.581c-0.225,0.025,0.071,1.863,0.161,2.27
			c0.088,0.41,0.244,2.37,0.302,2.185c0.059-0.185-0.271-2.758,0.102-2.478C14.854,35.055,14.836,34.664,14.883,34.379z"/>
		<path fill="#981C1F" d="M20.35,23.028c-0.05-0.221-0.021-1.499-0.178-3.081c-0.247-2.506-0.729-5.778-0.989-6.834
			c-0.417-1.693-2.077,0.909-2.089,1.38c-0.018,0.655,0.279,4.386,0.516,5.078c0.236,0.693,1.258,2.991,1.391,3.623
			C19.134,23.827,20.481,23.62,20.35,23.028z"/>
		<path fill="#981C1F" d="M16.717,16.463c-0.021-0.384-0.992-1.504-1.021-1.366c-0.09,0.442-0.118,1.216-0.034,1.629
			c0.083,0.413-0.061,0.984,0.005,1.259c0.066,0.276,0.086,0.521,0.016,0.983c-0.069,0.463-0.278,1.741-0.195,2.138
			c0.083,0.398-0.203,1.679-0.061,1.845c0.141,0.166,0.998-0.876,1.085-1.232c0.086-0.354,0.165-1.17,0.012-1.981
			c-0.15-0.813-0.052-1.335-0.043-1.734C16.491,17.604,16.74,16.847,16.717,16.463z"/>
		<path fill="#981C1F" d="M16.24,41.509c-0.147,0.229-0.476,0.668-0.776,1.198c-0.049-0.769-0.48-1.939-0.521-2.204
			c-0.092-0.612-0.552,0.069-0.505,0.419c0.035,0.255,0.102,0.778,0.174,1.315c0.099,0.747,0.087,3.253,0.106,3.577
			c0.03,0.496,1.405,0.589,1.706-0.125C16.561,45.366,16.33,41.371,16.24,41.509z"/>
		<path fill="#AF2B28" d="M15.812,22.423c-0.333,0.388-0.681,0.892-0.759,1.098c-0.079,0.206-0.008,0.737,0.161,1.124
			C15.384,25.031,15.973,22.237,15.812,22.423z"/>
		<path fill="#AF2B28" d="M14.437,24.698c0.139,0.395,0.571,1.097,0.577,1.466c0.006,0.368-0.39,1.173-0.438,0.724
			c-0.049-0.451-0.769-1.4-0.621-1.649C14.114,24.97,14.394,24.577,14.437,24.698z"/>
		<path fill="#AF2B28" d="M13.793,25.364c-0.116,0.432-0.359,1.871-0.381,2.998c-0.022,1.126,0.103,2.519,0.22,3.479
			c0.119,0.96,0.169,1.493-0.188-0.324c-0.358-1.819-0.527-4.58-0.412-5.074C13.146,25.949,13.793,25.364,13.793,25.364z"/>
		<path fill="#AF2B28" d="M14.47,40.387c-0.128,0.461,0.104,1.331,0.148,1.554c0.045,0.226,0.298-0.579,0.39-1.255
			C15.099,40.008,15.07,38.247,14.47,40.387z"/>
		<path fill="#AF2B28" d="M17.156,15.725c0.01,0.593,0.943,3.738,1.722,5.015c0.578,0.949,0.838,2.006,0.95,2.639
			c0.038,0.219,0.096,0.215,0.059,0.052c-0.174-0.771-0.496-2.226-0.538-2.698c-0.051-0.573-0.633-2.328-0.97-2.896
			C18.042,17.269,17.149,15.233,17.156,15.725z"/>
		<path fill="#AF2B28" d="M16.605,17.023c-0.038,0.396,0.235-0.619,0.328-1.214c0.092-0.595,0.438-3.264-0.022-2.601
			c-0.46,0.664-1.49,1.561-1.276,2.11C15.848,15.868,16.64,16.654,16.605,17.023z"/>
		<path fill="#AF2B28" d="M15.812,22.423c-0.333,0.388-0.681,0.892-0.759,1.098c-0.079,0.206-0.008,0.737,0.161,1.124
			C15.384,25.031,15.973,22.237,15.812,22.423z"/>
		<path fill="#AF2B28" d="M14.437,24.698c0.139,0.395,0.571,1.097,0.577,1.466c0.006,0.368-0.39,1.173-0.438,0.724
			c-0.049-0.451-0.769-1.4-0.621-1.649C14.114,24.97,14.394,24.577,14.437,24.698z"/>
		<path fill="#AF2B28" d="M13.793,25.364c-0.116,0.432-0.359,1.871-0.381,2.998c-0.022,1.126,0.103,2.519,0.22,3.479
			c0.119,0.96,0.169,1.493-0.188-0.324c-0.358-1.819-0.527-4.58-0.412-5.074C13.146,25.949,13.793,25.364,13.793,25.364z"/>
		<path fill="#AF2B28" d="M14.47,40.387c-0.128,0.461,0.104,1.331,0.148,1.554c0.045,0.226,0.298-0.579,0.39-1.255
			C15.099,40.008,15.07,38.247,14.47,40.387z"/>
		<path fill="#AF2B28" d="M17.156,15.725c0.01,0.593,0.943,3.738,1.722,5.015c0.578,0.949,0.838,2.006,0.95,2.639
			c0.038,0.219,0.096,0.215,0.059,0.052c-0.174-0.771-0.496-2.226-0.538-2.698c-0.051-0.573-0.633-2.328-0.97-2.896
			C18.042,17.269,17.149,15.233,17.156,15.725z"/>
		<path fill="#AF2B28" d="M18.135,11.694c-0.159-0.919-0.931-0.558-0.967-0.271c-0.023,0.181,0.009,0.517,0.074,0.894
			c0,0.001,0,0.001,0,0.001c-0.46,0.663-1.822,2.45-1.607,2.999c0.213,0.55,1.005,1.335,0.971,1.705
			c-0.038,0.396,0.235-0.619,0.328-1.214c0.034-0.216,0.145-0.824,0.25-1.478c0.059-0.366,0.989-0.821,1.208-1.591
			C18.458,12.5,18.172,11.913,18.135,11.694z"/>
		<path fill="#FFF1AE" d="M12.036,10.437c-0.25-0.116-1.636-0.744-2.137-0.854c-0.5-0.111-1.108-0.5-1.657-0.12
			c-0.548,0.38,3.348,1.325,3.563,1.359C12.018,10.857,12.401,10.607,12.036,10.437z"/>
		<path fill="#FFF1AE" d="M10.95,37.742c0.079,0.195-0.213,5.507-0.182,6.039c0.032,0.533,0.108,2.154-0.033,2.027
			c-0.141-0.124-0.682-2.141-0.822-3.556c-0.109-1.107-0.317-3.907-0.335-4.286c-0.018-0.381,0.367,0.482,0.686,0.4
			C10.651,38.267,10.872,37.547,10.95,37.742z"/>
		<path fill="#981C1F" d="M10.47,23.355c0.274,0.26,1.26,1.885,1.521,2.196c0.261,0.311,0.332,5.946-0.022,6.329
			c-0.354,0.383-0.338-3.119-0.897-3.968C10.511,27.064,10.229,23.126,10.47,23.355z"/>
		<path fill="#981C1F" d="M10.739,34.379c-0.037-0.228,0.744-1.606,0.968-1.581c0.226,0.025-0.071,1.863-0.16,2.27
			c-0.089,0.41-0.244,2.37-0.302,2.185c-0.059-0.185,0.271-2.758-0.103-2.478C10.769,35.055,10.786,34.664,10.739,34.379z"/>
		<path fill="#981C1F" d="M5.274,23.028c0.049-0.221,0.021-1.499,0.177-3.081c0.247-2.506,0.73-5.778,0.99-6.834
			c0.418-1.693,2.077,0.909,2.089,1.38c0.018,0.655-0.279,4.386-0.516,5.078c-0.237,0.693-1.258,2.991-1.391,3.623
			C6.49,23.827,5.141,23.62,5.274,23.028z"/>
		<path fill="#981C1F" d="M8.905,16.463c0.021-0.384,0.992-1.504,1.021-1.366c0.091,0.442,0.118,1.216,0.035,1.629
			c-0.083,0.413,0.061,0.984-0.005,1.259c-0.066,0.276-0.085,0.521-0.016,0.983c0.069,0.463,0.278,1.741,0.195,2.138
			c-0.083,0.398,0.202,1.679,0.062,1.845c-0.141,0.166-1-0.876-1.086-1.232c-0.086-0.354-0.165-1.17-0.014-1.981
			c0.152-0.813,0.053-1.335,0.044-1.734C9.131,17.604,8.883,16.847,8.905,16.463z"/>
		<path fill="#981C1F" d="M9.382,41.509c0.146,0.229,0.476,0.668,0.776,1.198c0.05-0.769,0.48-1.939,0.52-2.204
			c0.093-0.612,0.552,0.069,0.505,0.419c-0.034,0.255-0.102,0.778-0.173,1.315c-0.099,0.747-0.087,3.253-0.106,3.577
			c-0.029,0.496-1.405,0.589-1.706-0.125C9.062,45.366,9.292,41.371,9.382,41.509z"/>
		<path fill="#AF2B28" d="M9.81,22.423c0.333,0.388,0.682,0.892,0.76,1.098s0.008,0.737-0.162,1.124
			C10.238,25.031,9.649,22.237,9.81,22.423z"/>
		<path fill="#AF2B28" d="M11.186,24.698c-0.138,0.395-0.571,1.097-0.577,1.466c-0.006,0.368,0.39,1.173,0.438,0.724
			c0.048-0.451,0.768-1.4,0.622-1.649C11.509,24.97,11.229,24.577,11.186,24.698z"/>
		<path fill="#AF2B28" d="M11.83,25.364c0.116,0.432,0.358,1.871,0.381,2.998c0.022,1.126-0.104,2.519-0.221,3.479
			c-0.118,0.96-0.168,1.493,0.189-0.324c0.357-1.819,0.526-4.58,0.411-5.074C12.476,25.949,11.83,25.364,11.83,25.364z"/>
		<path fill="#AF2B28" d="M11.152,40.387c0.129,0.461-0.104,1.331-0.148,1.554c-0.044,0.226-0.298-0.579-0.389-1.255
			C10.523,40.008,10.552,38.247,11.152,40.387z"/>
		<path fill="#AF2B28" d="M8.466,15.725c-0.009,0.593-0.943,3.738-1.722,5.015c-0.578,0.949-0.838,2.006-0.949,2.639
			c-0.039,0.219-0.097,0.215-0.06,0.052c0.174-0.771,0.497-2.226,0.538-2.698c0.05-0.573,0.632-2.328,0.969-2.896
			C7.581,17.269,8.474,15.233,8.466,15.725z"/>
		<path fill="#AF2B28" d="M9.019,17.023c0.037,0.396-0.236-0.619-0.329-1.214c-0.093-0.595-0.438-3.264,0.022-2.601
			c0.46,0.664,1.491,1.561,1.276,2.11C9.775,15.868,8.983,16.654,9.019,17.023z"/>
		<path fill="#AF2B28" d="M9.81,22.423c0.333,0.388,0.682,0.892,0.76,1.098s0.008,0.737-0.162,1.124
			C10.238,25.031,9.649,22.237,9.81,22.423z"/>
		<path fill="#AF2B28" d="M11.186,24.698c-0.138,0.395-0.571,1.097-0.577,1.466c-0.006,0.368,0.39,1.173,0.438,0.724
			c0.048-0.451,0.768-1.4,0.622-1.649C11.509,24.97,11.229,24.577,11.186,24.698z"/>
		<path fill="#AF2B28" d="M11.83,25.364c0.116,0.432,0.358,1.871,0.381,2.998c0.022,1.126-0.104,2.519-0.221,3.479
			c-0.118,0.96-0.168,1.493,0.189-0.324c0.357-1.819,0.526-4.58,0.411-5.074C12.476,25.949,11.83,25.364,11.83,25.364z"/>
		<path fill="#AF2B28" d="M11.152,40.387c0.129,0.461-0.104,1.331-0.148,1.554c-0.044,0.226-0.298-0.579-0.389-1.255
			C10.523,40.008,10.552,38.247,11.152,40.387z"/>
		<path fill="#AF2B28" d="M8.466,15.725c-0.009,0.593-0.943,3.738-1.722,5.015c-0.578,0.949-0.838,2.006-0.949,2.639
			c-0.039,0.219-0.097,0.215-0.06,0.052c0.174-0.771,0.497-2.226,0.538-2.698c0.05-0.573,0.632-2.328,0.969-2.896
			C7.581,17.269,8.474,15.233,8.466,15.725z"/>
		<path fill="#AF2B28" d="M7.488,11.694c0.16-0.919,0.932-0.558,0.967-0.271c0.023,0.181-0.009,0.517-0.075,0.894
			c0,0.001,0,0.001,0,0.001c0.46,0.663,1.822,2.45,1.608,2.999c-0.213,0.55-1.005,1.335-0.97,1.705
			c0.037,0.396-0.235-0.619-0.329-1.214c-0.034-0.216-0.144-0.824-0.25-1.478c-0.06-0.366-0.989-0.821-1.208-1.591
			C7.164,12.5,7.451,11.913,7.488,11.694z"/>
		<path fill="#AF2B28" d="M15.063,9.158c-0.142-0.027-0.427-0.183-0.554-0.5c-0.193-0.483-0.2-1.197-0.188-1.253
			c-0.136,0.22-0.507,0.578-0.9,0.815c-0.224,0.137-0.521,0.221-0.609,0.251c-0.087-0.031-0.385-0.115-0.61-0.251
			c-0.392-0.237-0.763-0.595-0.899-0.815c0.011,0.056,0.004,0.77-0.188,1.253c-0.128,0.318-0.414,0.474-0.554,0.5
			C9.838,9.293,9.618,9.307,8.959,9.315C9.006,9.392,9.912,9.54,10.651,9.84c0.736,0.298,1.304,0.75,1.397,0.813
			c0.141,0.092,0.509,0.242,0.747,0.259v0.001c0.005,0,0.011-0.001,0.017-0.001c0.004,0,0.011,0.001,0.016,0.001v-0.001
			c0.238-0.017,0.606-0.167,0.747-0.259c0.093-0.062,0.661-0.514,1.396-0.813c0.741-0.301,1.647-0.448,1.693-0.525
			C16.005,9.307,15.784,9.293,15.063,9.158z"/>
	</g>
	<path fill="#C95647" d="M17.582,27.734c-0.016,1.198-0.653,5.177-0.945,6.165c-0.292,0.99-0.402,1.668-0.506,0.963
		c-0.104-0.706-0.302-3.375,0.077-4.672c0.378-1.298-0.428-5.492,0.061-5.593C16.758,24.497,17.595,26.689,17.582,27.734z"/>
	<path fill="#C95647" d="M8.042,27.734c0.015,1.198,0.653,5.177,0.944,6.165c0.291,0.99,0.403,1.668,0.507,0.963
		c0.104-0.706,0.301-3.375-0.077-4.672c-0.378-1.298,0.429-5.492-0.062-5.593C8.865,24.497,8.028,26.689,8.042,27.734z"/>
	<path fill="#C95647" d="M13.867,29.859c-0.081,0.804-0.231,4.543,0.729,4.987c0.959,0.446,0.424-3.993,0.411-4.759
		c-0.012-0.769,0.126-3.536-0.375-2.299C14.13,29.026,13.92,29.335,13.867,29.859z"/>
	<path fill="#C95647" d="M11.756,29.859c0.08,0.804,0.23,4.543-0.729,4.987c-0.961,0.446-0.425-3.993-0.413-4.759
		c0.013-0.769-0.126-3.536,0.375-2.299C11.494,29.026,11.703,29.335,11.756,29.859z"/>
	<path fill="#C95647" d="M16.676,36.263c0.291,0.96,0.504,2.665,0.259,4.514c-0.246,1.847-0.667,4.25-0.75,4.867
		c-0.082,0.614-0.334,0.495-0.14-0.769c0.194-1.263,0.248-3.935,0.292-4.886C16.384,39.036,16.286,34.981,16.676,36.263z"/>
	<path fill="#C95647" d="M8.947,36.263c-0.291,0.96-0.505,2.665-0.258,4.514c0.245,1.847,0.666,4.25,0.749,4.867
		c0.082,0.614,0.334,0.495,0.14-0.769c-0.194-1.263-0.247-3.935-0.292-4.886C9.239,39.036,9.336,34.981,8.947,36.263z"/>
	<path fill="#C95647" d="M17.231,12.17c-0.13,0.992-0.178,2.307-0.072,3.043c0.104,0.735,1.167,2.639,1.574,3.124
		c0.003-0.014-0.726-3.892-0.867-4.289C17.725,13.65,17.255,11.982,17.231,12.17z"/>
	<path fill="#C95647" d="M8.392,12.17c0.13,0.992,0.177,2.307,0.073,3.043c-0.105,0.735-1.167,2.639-1.574,3.124
		c-0.004-0.014,0.726-3.892,0.866-4.289C7.898,13.65,8.367,11.982,8.392,12.17z"/>
	<path fill="#C95647" d="M18.991,14.417c-0.426-1.622-0.876-2.01-1.127-2.345c-0.075-0.099-0.022,0.38,0.088,0.913
		c0.107,0.52-0.078,1.141-0.057,1.261c0.135,0.81,0.58,3.067,0.838,4.09C19.02,17.22,19.412,16.02,18.991,14.417z"/>
	<path fill="#C95647" d="M6.631,14.417c0.427-1.622,0.878-2.01,1.129-2.345c0.075-0.099,0.022,0.38-0.089,0.913
		c-0.107,0.52,0.078,1.141,0.058,1.261c-0.136,0.81-0.58,3.067-0.838,4.09C6.603,17.22,6.21,16.02,6.631,14.417z"/>
	<path fill="#E4816B" d="M14.885,27.022c-0.334,1.151-0.239,3.532-0.004,4.726c0.235,1.194,0.309,1.962,0.164,2.486
		s0.256,0.61,0.624,0.604c0.369-0.007,0.52-0.162,0.383-1.021c-0.137-0.856,0.297-1.732,0.63-2.774
		c0.333-1.042,0.592-3.205,0.358-4.368c-0.234-1.164-0.885-3.335-1.037-3.302C15.849,23.406,15,26.62,14.885,27.022z"/>
	<path fill="#E4816B" d="M10.738,27.022c0.333,1.151,0.239,3.532,0.003,4.726c-0.234,1.194-0.308,1.962-0.164,2.486
		c0.145,0.524-0.256,0.61-0.625,0.604c-0.369-0.007-0.519-0.162-0.383-1.021c0.138-0.856-0.297-1.732-0.629-2.774
		C8.608,30,8.348,27.837,8.583,26.674c0.234-1.164,0.884-3.335,1.038-3.302C9.773,23.406,10.622,26.62,10.738,27.022z"/>
	<path fill="#E4816B" d="M13.042,10.913c-0.119,0.278,0.083,2.477,0.172,2.894c0.085,0.401,0.483,0.743,0.817,0.888
		c0.324,0.141,1.33,0.047,2.022-0.472c0.76-0.571,1.197-1.593,1.241-1.932c0.082-0.647,0.483-0.384,0.727-0.479
		c0.027-0.012-1.106-1.311-2.355-1.552C14.427,10.021,13.073,10.838,13.042,10.913z"/>
	<path fill="#E4816B" d="M12.581,10.913c0.118,0.278-0.083,2.477-0.172,2.894c-0.086,0.401-0.483,0.743-0.817,0.888
		c-0.325,0.141-1.331,0.047-2.022-0.472c-0.761-0.571-1.198-1.593-1.241-1.932c-0.081-0.647-0.484-0.384-0.728-0.479
		c-0.027-0.012,1.107-1.311,2.355-1.552C11.196,10.021,12.549,10.838,12.581,10.913z"/>
	<path fill="#F59579" d="M15.325,10.235c0.164-0.003,1.018,0.124,1.601,0.59c0.429,0.343,0.634,1.038,0.701,1.154
		c0.055,0.095,0.62,0.63,0.989,1.302c0.289,0.524,0.399,1.235,0.45,1.21c0.044-0.021,0.303-1.273,0.252-2.431
		c-0.032-0.708-0.263-1.398-0.489-1.697c-0.597-0.79-1.303-1.155-1.853-0.992C16.425,9.535,15.141,10.239,15.325,10.235z"/>
	<path fill="#F59579" d="M10.298,10.235c-0.164-0.003-1.019,0.124-1.602,0.59c-0.428,0.343-0.634,1.038-0.701,1.154
		c-0.055,0.095-0.62,0.63-0.99,1.302c-0.289,0.524-0.398,1.235-0.45,1.21c-0.043-0.021-0.304-1.273-0.251-2.431
		c0.032-0.708,0.262-1.398,0.488-1.697c0.598-0.79,1.303-1.155,1.854-0.992C9.197,9.535,10.482,10.239,10.298,10.235z"/>
	<path fill="#F59579" d="M19.414,15.977c-0.077,0.671-0.679,1.67-0.636,2.407c0.042,0.737,0.231,1.013,0.775,2.294
		c0.543,1.282,0.612,2.313,0.681,2.168c0.069-0.144-0.122-1.343-0.335-3.091C19.685,18.008,19.494,15.268,19.414,15.977z"/>
	<path fill="#F59579" d="M6.209,15.977c0.076,0.671,0.678,1.67,0.636,2.407c-0.043,0.737-0.232,1.013-0.775,2.294
		c-0.544,1.282-0.613,2.313-0.681,2.168c-0.069-0.144,0.122-1.343,0.335-3.091C5.938,18.008,6.129,15.268,6.209,15.977z"/>
	<path fill="#F59579" d="M16.379,21.984c-0.217,0.655-0.492,1.851-0.145,2.398c0.347,0.547,1.161,1.649,1.272,2.753
		c0.069,0.695,0.089,0.268,0.015-0.541c-0.044-0.478-0.184-1.155-0.294-1.644C16.929,23.635,16.583,21.366,16.379,21.984z"/>
	<path fill="#F59579" d="M9.244,21.984c0.217,0.655,0.492,1.851,0.145,2.398c-0.347,0.547-1.162,1.649-1.272,2.753
		c-0.069,0.695-0.089,0.268-0.016-0.541c0.044-0.478,0.184-1.155,0.295-1.644C8.695,23.635,9.039,21.366,9.244,21.984z"/>
	<path fill="#F59579" d="M15.895,22.453c-0.534,0.87-0.912,2.411-1.023,3.181c-0.109,0.77-0.875,2.749-1.038,4.074
		c-0.163,1.322-0.267,2.431-0.189,3.444c0.078,1.011,0.58,3.687,0.647,4.055c0.067,0.368,0.009-1.516-0.198-2.834
		c-0.206-1.319-0.328-3.159,0.078-4.642c0.406-1.482,1.387-3.434,1.492-4.54c0.104-1.107,0.9-3.118,0.895-3.518
		C16.552,21.274,16.105,22.111,15.895,22.453z"/>
	<path fill="#F59579" d="M9.727,22.453c0.535,0.87,0.913,2.411,1.023,3.181c0.11,0.77,0.876,2.749,1.04,4.074
		c0.162,1.322,0.267,2.431,0.188,3.444c-0.078,1.011-0.579,3.687-0.646,4.055c-0.068,0.368-0.01-1.516,0.197-2.834
		c0.206-1.319,0.328-3.159-0.078-4.642c-0.406-1.482-1.387-3.434-1.491-4.54c-0.105-1.107-0.901-3.118-0.895-3.518
		C9.071,21.274,9.519,22.111,9.727,22.453z"/>
	<path fill="#F59579" d="M16.14,35.383c-0.068,1.015-0.251,3.415-0.356,4.522c-0.105,1.107-0.874,5.37-0.866,5.892
		c0.009,0.522,1.675-5.231,1.721-6.183c0.046-0.953,0.002-3.625-0.161-4.208C16.314,34.828,16.188,34.645,16.14,35.383z"/>
	<path fill="#F59579" d="M9.483,35.383c0.068,1.015,0.251,3.415,0.355,4.522c0.104,1.107,0.875,5.37,0.866,5.892
		c-0.008,0.522-1.675-5.231-1.721-6.183c-0.045-0.953-0.001-3.625,0.162-4.208C9.308,34.828,9.434,34.645,9.483,35.383z"/>
	<path fill="#F59579" d="M14.321,36.948c-0.094,0.749-0.291,2.863,0.093,3.747c0.542-0.592,0.605-1.166,0.563-1.871
		C14.935,38.118,14.376,36.518,14.321,36.948z"/>
	<path fill="#F59579" d="M11.301,36.948c0.094,0.749,0.291,2.863-0.092,3.747c-0.544-0.592-0.606-1.166-0.564-1.871
		C10.687,38.118,11.247,36.518,11.301,36.948z"/>
	<g>
		<path fill="#F59579" d="M10.614,20.714c-0.012,0.676,0.235,0.987,0.677,2.193c0.178,0.488,0.405,1.091,0.614,1.603
			c0.308,0.749,0.647,0.446,0.644-0.004c-0.006-0.876-0.038-3.367-0.056-3.593c-0.011-0.124-0.068-0.132-0.135-0.175
			c-0.113-0.071,0.061-0.2-0.215-0.173C11.866,20.59,10.618,20.499,10.614,20.714z"/>
		<path fill="#F59579" d="M12.404,18.526c0.115,0.108,0.187,1.27,0.109,1.684c-0.012,0.066-0.123,0.018-0.171,0.069
			c-0.052,0.055-0.048,0.109-0.061,0.121c-0.094,0.092-1.51,0.117-1.616-0.053c-0.104-0.17-0.242-1.356-0.177-1.571
			C10.554,18.562,12.251,18.383,12.404,18.526z"/>
		<path fill="#F59579" d="M12.358,16.576c0.164,0.003,0.264,1.493,0.077,1.659c-0.188,0.166-0.798,0.156-0.968,0.168
			c-0.169,0.013-0.821,0.175-0.928,0.097c-0.106-0.078-0.141-1.137-0.031-1.274C10.618,17.089,12.189,16.573,12.358,16.576z"/>
		<path fill="#F59579" d="M12.388,14.718c0.124,0.042,0.188,1.477-0.015,1.658c-0.203,0.181-1.705,0.483-1.844,0.512
			c-0.138,0.028-0.123-0.893,0.005-1.229c0.128-0.336,0.563-0.575,0.84-0.678C11.653,14.878,12.251,14.669,12.388,14.718z"/>
	</g>
	<g>
		<path fill="#F59579" d="M15.009,20.714c0.011,0.676-0.236,0.987-0.677,2.193c-0.179,0.488-0.405,1.091-0.615,1.603
			c-0.308,0.749-0.647,0.446-0.644-0.004c0.007-0.876,0.039-3.367,0.057-3.593c0.009-0.124,0.067-0.132,0.135-0.175
			c0.112-0.071-0.063-0.2,0.214-0.173C13.756,20.59,15.005,20.499,15.009,20.714z"/>
		<path fill="#F59579" d="M13.219,18.526c-0.115,0.108-0.188,1.27-0.109,1.684c0.013,0.066,0.124,0.018,0.171,0.069
			c0.053,0.055,0.048,0.109,0.061,0.121c0.094,0.092,1.51,0.117,1.615-0.053c0.104-0.17,0.242-1.356,0.177-1.571
			C15.068,18.562,13.373,18.383,13.219,18.526z"/>
		<path fill="#F59579" d="M13.265,16.576c-0.163,0.003-0.264,1.493-0.078,1.659c0.188,0.166,0.799,0.156,0.968,0.168
			c0.168,0.013,0.821,0.175,0.927,0.097c0.106-0.078,0.142-1.137,0.031-1.274C15.004,17.089,13.434,16.573,13.265,16.576z"/>
		<path fill="#F59579" d="M13.234,14.718c-0.123,0.042-0.188,1.477,0.015,1.658c0.203,0.181,1.706,0.483,1.845,0.512
			c0.139,0.028,0.123-0.893-0.005-1.229c-0.128-0.336-0.562-0.575-0.84-0.678C13.97,14.878,13.372,14.669,13.234,14.718z"/>
	</g>
	<path fill="#F59579" d="M16.434,19.739c-0.022,0.027-0.054,0.052-0.093,0.079c0.099-0.136,0.152-0.3,0.118-0.479
		c-0.073-0.375,0.027-0.979,0.02-1.226c-0.003-0.095-0.216,0.022-0.255,0.056c0.117-0.11,0.24-0.188,0.248-0.237
		c0.028-0.169,0.027-0.617-0.036-0.723c-0.019-0.031-0.171,0.025-0.227,0.041c0.042-0.027,0.192-0.116,0.221-0.138
		c0.099-0.079,0.059-0.764,0.011-0.863c-0.023-0.05-0.156,0.034-0.206,0.018c0.001-0.001,0.014,0.015,0.136-0.071
		c0.123-0.085-0.089-0.749-0.21-0.713c-0.244,0.073-0.609,0.327-0.626,0.404c-0.036,0.174,0.026,0.369,0.088,0.513
		c0.019,0.043,0.192-0.025,0.234-0.008c-0.023,0.019-0.189,0.095-0.205,0.118c-0.104,0.164-0.005,0.367-0.012,0.677
		c-0.005,0.218,0.171,0.222,0.365,0.156c-0.083,0.05-0.175,0.107-0.268,0.166c-0.152,0.095-0.162,1.021-0.039,1.019
		c0.029,0,0.152-0.089,0.21-0.097c-0.169,0.172-0.37,0.444-0.398,0.633c-0.044,0.288-0.141,0.979-0.067,1.15
		c0.01,0.021,0.093,0.016,0.197-0.004c-0.009,0.007-0.018,0.012-0.026,0.019c-0.17,0.124-0.261,0.31-0.288,0.432
		c-0.071,0.324-0.354,1.782-0.338,2.166c0.016,0.384,0.423-0.102,0.83-0.584c0.407-0.483,0.693-0.769,0.733-1.092
		C16.591,20.828,16.629,19.506,16.434,19.739z"/>
	<path fill="#F59579" d="M9.189,19.739c0.021,0.027,0.054,0.052,0.093,0.079c-0.1-0.136-0.152-0.3-0.118-0.479
		c0.073-0.375-0.027-0.979-0.02-1.226c0.003-0.095,0.216,0.022,0.255,0.056c-0.116-0.11-0.239-0.188-0.247-0.237
		c-0.028-0.169-0.028-0.617,0.036-0.723c0.019-0.031,0.17,0.025,0.227,0.041c-0.043-0.027-0.192-0.116-0.221-0.138
		c-0.099-0.079-0.059-0.764-0.012-0.863c0.024-0.05,0.156,0.034,0.207,0.018c-0.002-0.001-0.015,0.015-0.138-0.071
		c-0.124-0.085,0.09-0.749,0.21-0.713c0.245,0.073,0.61,0.327,0.626,0.404c0.037,0.174-0.025,0.369-0.088,0.513
		c-0.019,0.043-0.192-0.025-0.234-0.008c0.023,0.019,0.19,0.095,0.205,0.118c0.104,0.164,0.005,0.367,0.012,0.677
		c0.004,0.218-0.172,0.222-0.366,0.156c0.084,0.05,0.175,0.107,0.268,0.166c0.152,0.095,0.162,1.021,0.04,1.019
		c-0.03,0-0.153-0.089-0.21-0.097c0.169,0.172,0.369,0.444,0.398,0.633c0.042,0.288,0.14,0.979,0.066,1.15
		c-0.01,0.021-0.093,0.016-0.196-0.004c0.009,0.007,0.018,0.012,0.025,0.019c0.169,0.124,0.261,0.31,0.288,0.432
		c0.071,0.324,0.353,1.782,0.338,2.166c-0.015,0.384-0.423-0.102-0.83-0.584c-0.407-0.483-0.692-0.769-0.732-1.092
		C9.033,20.828,8.993,19.506,9.189,19.739z"/>
</g>
<path fill="#333333" d="M30.732,16.465H26.88l-0.732,2.197h-2.336l3.97-10.664h2.036l3.992,10.664h-2.336L30.732,16.465z
	 M27.473,14.685h2.666l-1.34-3.992L27.473,14.685z"/>
<path fill="#333333" d="M43.477,18.662h-2.197l-4.277-7.017v7.017h-2.197V7.998h2.197l4.285,7.031V7.998h2.19V18.662z"/>
<path fill="#333333" d="M51.548,16.465h-3.853l-0.732,2.197h-2.336l3.97-10.664h2.037l3.991,10.664h-2.337L51.548,16.465z
	 M48.289,14.685h2.667l-1.341-3.992L48.289,14.685z"/>
<path fill="#333333" d="M95.769,6.778H59.502v11.884h-2.197V6.778H24.082v-1.78h71.687V6.778z"/>
<path fill="#333333" d="M72.575,13.572c0,1.05-0.186,1.97-0.557,2.761s-0.902,1.401-1.593,1.831
	c-0.691,0.43-1.483,0.645-2.377,0.645c-0.884,0-1.673-0.212-2.365-0.637c-0.694-0.425-1.23-1.031-1.611-1.82
	s-0.574-1.696-0.579-2.721v-0.527c0-1.05,0.189-1.974,0.567-2.772c0.379-0.799,0.913-1.411,1.604-1.839
	c0.69-0.427,1.48-0.641,2.369-0.641s1.679,0.214,2.369,0.641c0.691,0.428,1.226,1.04,1.604,1.839
	c0.378,0.798,0.567,1.72,0.567,2.765V13.572z M70.349,13.088c0-1.118-0.2-1.968-0.601-2.549s-0.972-0.872-1.714-0.872
	c-0.737,0-1.307,0.287-1.706,0.86c-0.401,0.574-0.604,1.415-0.608,2.523v0.52c0,1.089,0.2,1.934,0.601,2.534
	s0.977,0.901,1.729,0.901c0.737,0,1.304-0.289,1.699-0.868c0.396-0.578,0.596-1.422,0.601-2.53V13.088z"/>
<path fill="#333333" d="M77.043,7.998l2.739,7.734l2.725-7.734h2.886v10.664h-2.204v-2.915l0.219-5.032l-2.878,7.947h-1.509
	l-2.871-7.939l0.22,5.024v2.915h-2.197V7.998H77.043z"/>
<path fill="#333333" d="M90.783,12.803l2.219-4.805h2.402l-3.5,6.797v3.867H89.67v-3.867l-3.501-6.797h2.409L90.783,12.803z"/>
<path fill="#333333" d="M43.295,45.662h-4.834l-9.41-15.436v15.436h-4.834v-23.46h4.834l9.426,15.468V22.201h4.818V45.662z"/>
<path fill="#333333" d="M66.788,34.463c0,2.31-0.408,4.335-1.225,6.075s-1.984,3.082-3.505,4.027
	c-1.52,0.945-3.263,1.418-5.229,1.418c-1.944,0-3.68-0.467-5.205-1.401s-2.707-2.269-3.544-4.005
	c-0.838-1.734-1.262-3.729-1.273-5.985v-1.16c0-2.31,0.416-4.342,1.249-6.099c0.832-1.756,2.008-3.104,3.528-4.044
	s3.258-1.41,5.213-1.41s3.692,0.47,5.213,1.41c1.52,0.94,2.696,2.288,3.528,4.044c0.833,1.757,1.249,3.784,1.249,6.083V34.463z
	 M61.89,33.4c0-2.46-0.44-4.329-1.321-5.607s-2.138-1.917-3.771-1.917c-1.622,0-2.874,0.631-3.755,1.894s-1.326,3.112-1.337,5.551
	v1.144c0,2.396,0.44,4.254,1.321,5.575s2.148,1.982,3.803,1.982c1.622,0,2.868-0.637,3.738-1.91s1.311-3.129,1.321-5.566V33.4z"/>
<path fill="#333333" d="M88.573,38.894l3.158-16.693h4.818l-5.205,23.46h-4.866l-3.819-15.694l-3.818,15.694h-4.866l-5.204-23.46
	h4.817l3.175,16.662l3.867-16.662h4.092L88.573,38.894z"/>
</svg>
